<svg xmlns="http://www.w3.org/2000/svg" viewBox="0 0 64 64" width="64" height="64">
  <path fill="#c8a55a" d="M32 11
           c-11 0-19 7.5-19 18
           0 6 2.6 10.4 6.4 13.2
           0.9 0.7 1.4 1.5 1.5 2.6
           l0.5 4.3
           c0.15 1.3 1.2 2.3 2.5 2.3
           h2.0
           c1.2 0 2.2-1 2.2-2.2
           v-2.6
           c0-0.8 0.6-1.3 1.4-1.3
           h2.0
           c0.8 0 1.4 0.5 1.4 1.3
           v2.6
           c0 1.2 1 2.2 2.2 2.2
           h2.0
           c1.3 0 2.35-1 2.5-2.3
           l0.5-4.3
           c0.1-1.1 0.6-1.9 1.5-2.6
           C48.4 39.4 51 35 51 29
           c0-10.5-8-18-19-18z"/>
  <g fill="#0a0908">
    <ellipse cx="24" cy="29" rx="5.6" ry="6.4"/>
    <ellipse cx="40" cy="29" rx="5.6" ry="6.4"/>
    <path d="M32 33 l3.2 7 h-6.4 z"/>
    <rect x="27.5" y="46.5" width="1.6" height="6" rx="0.6"/>
    <rect x="31.2" y="46.5" width="1.6" height="6" rx="0.6"/>
    <rect x="34.9" y="46.5" width="1.6" height="6" rx="0.6"/>
  </g>
</svg>
